HIERARCHY
ROOT root
{
	OFFSET	0	13.1	24.9
	CHANNELS 6  Xposition Yposition Zposition Xrotation Yrotation Zrotation
	JOINT spine_1
	{
		OFFSET	0	9.99999	0
		CHANNELS 3  Xrotation Yrotation Zrotation
		JOINT spine_2
		{
			OFFSET	0	112	-10
			CHANNELS 3  Xrotation Yrotation Zrotation
			JOINT spine_3
			{
				OFFSET	0	206.5	19.3
				CHANNELS 3  Xrotation Yrotation Zrotation
				JOINT spine_4
				{
					OFFSET	0	110.4	14.6
					CHANNELS 3  Xrotation Yrotation Zrotation
					JOINT neck_1
					{
						OFFSET	0	71.8	-50.3
						CHANNELS 3  Xrotation Yrotation Zrotation
						JOINT neck_2
						{
							OFFSET	0	86.2	-25.8
							CHANNELS 3  Xrotation Yrotation Zrotation
							JOINT head_ee
							{
								OFFSET	0	179.8	-8.7
								CHANNELS 3  Xrotation Yrotation Zrotation
								End Site
								{
									OFFSET	1	0	0
								}
							}
						}
					}
					JOINT left_clavicle
					{
						OFFSET	-43.2	22.4	-70.8
						CHANNELS 3  Xrotation Yrotation Zrotation
						JOINT left_shoulder
						{
							OFFSET	-93.9	-5.79999	48.7
							CHANNELS 3  Xrotation Yrotation Zrotation
							JOINT left_elbow
							{
								OFFSET	-291.4	-30.8	15.2
								CHANNELS 3  Xrotation Yrotation Zrotation
								JOINT left_lowarm_twist
								{
									OFFSET	-110.7	-3.89999	13.6
									CHANNELS 3  Xrotation Yrotation Zrotation
									JOINT left_hand
									{
										OFFSET	-110.7	-3.89999	13.6
										CHANNELS 3  Xrotation Yrotation Zrotation
										JOINT left_ee
										{
											OFFSET	-80.8	-5.10001	12.1
											CHANNELS 3  Xrotation Yrotation Zrotation
											End Site
											{
												OFFSET	1	0	0
											}
										}
									}
								}
							}
						}
					}
					JOINT right_clavicle
					{
						OFFSET	43.2	22.4	-70.8
						CHANNELS 3  Xrotation Yrotation Zrotation
						JOINT right_shoulder
						{
							OFFSET	93.9	-5.79999	48.7
							CHANNELS 3  Xrotation Yrotation Zrotation
							JOINT right_elbow
							{
								OFFSET	291.4	-30.8	15.2
								CHANNELS 3  Xrotation Yrotation Zrotation
								JOINT right_lowarm_twist
								{
									OFFSET	110.7	-3.89999	13.6
									CHANNELS 3  Xrotation Yrotation Zrotation
									JOINT right_hand
									{
										OFFSET	110.7	-3.89999	13.6
										CHANNELS 3  Xrotation Yrotation Zrotation
										JOINT right_ee
										{
											OFFSET	80.8	-5.10001	12.1
											CHANNELS 3  Xrotation Yrotation Zrotation
											End Site
											{
												OFFSET	1	0	0
											}
										}
									}
								}
							}
						}
					}
				}
			}
		}
	}
	JOINT left_hip
	{
		OFFSET	-82.8	-127.5	0.300001
		CHANNELS 3  Xrotation Yrotation Zrotation
		JOINT left_knee
		{
			OFFSET	-28.2	-396.7	2.2
			CHANNELS 3  Xrotation Yrotation Zrotation
			JOINT left_ankle
			{
				OFFSET	-11.7	-411.3	35.4
				CHANNELS 3  Xrotation Yrotation Zrotation
				JOINT left_toes
				{
					OFFSET	0	-60	-88.6
					CHANNELS 3  Xrotation Yrotation Zrotation
					JOINT left_foot_ee
					{
						OFFSET	-22.5	-16.5	-42.2
						CHANNELS 3  Xrotation Yrotation Zrotation
						End Site
						{
							OFFSET	1	0	0
						}
					}
				}
			}
		}
	}
	JOINT right_hip
	{
		OFFSET	82.8	-127.5	0.300001
		CHANNELS 3  Xrotation Yrotation Zrotation
		JOINT right_knee
		{
			OFFSET	28.2	-396.7	2.2
			CHANNELS 3  Xrotation Yrotation Zrotation
			JOINT right_ankle
			{
				OFFSET	11.7	-411.3	35.4
				CHANNELS 3  Xrotation Yrotation Zrotation
				JOINT right_toes
				{
					OFFSET	0	-60	-88.6
					CHANNELS 3  Xrotation Yrotation Zrotation
					JOINT right_foot_ee
					{
						OFFSET	22.5	-16.5	-42.2
						CHANNELS 3  Xrotation Yrotation Zrotation
						End Site
						{
							OFFSET	1	0	0
						}
					}
				}
			}
		}
	}
}
MOTION
Frames: 6
Frame Time: 0.02
2867.98183979 683.244 -1676.12611258 7.26384911716 50.3377066478 -1.71142506482 -0.145195 0.318743 -0.0749951 -0.14525 0.322869 -0.0545605 -0.145593 0.327087 0.0153493 -0.145446 0.325406 -0.0365011 -21.7677 17.5218 4.27002 -23.585 31.7554 12.4991 -0.0 0.0 -0.0 -0.858985 9.43514 -0.374309 0.720222 -9.48658 62.553 1.30942 -32.9678 0.387482 -81.6299 -8.02822 5.25483 -5.96807 28.953 -21.3963 -0.0 0.0 -0.0 3.85664 26.7199 -5.30408 -13.0957 32.2203 -71.966 0.901112 24.0549 -0.191993 26.4323 -0.162774 3.34279 -1.86298 -26.3899 -0.0425022 0.0 0.0 0.0 0.754072 21.4906 -5.95514 -20.076 0.294728 3.05098 27.7655 5.23449 -3.64526 -0.996703 0.0 0.0 -0.0 0.0 -0.0 17.4005 34.7375 -18.9839 -62.4236 2.46729 -8.78691 34.5816 -24.6384 4.60728 33.006 -0.0 -0.0 0.0 0.0 0.0 
2852.10187994 685.317 -1656.25079527 8.79087098115 55.8616931279 -3.86479897607 -0.11707 0.485791 0.158586 -0.117181 0.474715 0.189177 -0.115617 0.423781 0.285574 -0.115431 0.463563 0.215061 -21.9689 15.9807 3.44939 -23.5042 29.1859 10.9493 -0.0 0.0 -0.0 -1.74583 10.6882 -1.72072 1.82207 -19.0402 61.1206 1.34517 -33.6761 0.407123 -82.7566 -8.17039 5.23415 -5.90899 29.3878 -20.6882 -0.0 0.0 -0.0 3.7444 24.7596 -5.26254 -15.1546 31.612 -71.7111 0.886323 23.704 -0.186006 27.7354 -0.130778 3.50616 -1.82258 -28.8784 -1.43766 0.0 0.0 0.0 -1.32311 19.073 -4.75642 -20.7702 0.285688 3.15712 28.0369 2.9606 -3.681 -4.78142 0.0 0.0 -0.0 0.0 -0.0 19.5846 31.8591 -19.9351 -61.0261 2.31179 -8.63751 31.2369 -24.9265 4.24697 30.5167 -0.0 -0.0 0.0 0.0 0.0 
2835.28881369 685.638 -1625.43477454 9.76265855676 59.5948002599 -4.98319935433 -0.149183 0.425102 0.0375602 -0.149281 0.421851 0.0645349 -0.148839 0.39847 0.15279 -0.148628 0.417599 0.0879404 -21.6981 15.8943 2.94261 -23.222 29.2411 10.3649 -0.0 0.0 -0.0 -1.47993 11.1095 -1.20092 3.14488 -18.1588 60.0132 1.54053 -37.3458 0.520655 -83.6357 -8.28096 5.21605 -6.05629 29.0089 -21.8707 -0.0 0.0 -0.0 3.86164 26.2158 -5.36744 -16.0842 31.2046 -71.3816 0.700731 19.143 -0.118163 28.3623 -0.114062 3.5845 -1.67699 -27.5832 -1.62287 0.0 0.0 0.0 -2.86226 20.2857 -3.62962 -20.1513 0.293809 3.06251 29.3187 2.32399 -3.82353 -4.40784 0.0 0.0 -0.0 0.0 -0.0 21.4663 30.2255 -20.424 -57.1302 1.8982 -8.20174 29.7209 -25.5809 4.08926 29.2668 -0.0 -0.0 0.0 0.0 0.0 
2822.7618618 689.518 -1600.69144594 11.512723339 65.2455087554 -7.32449294541 -0.229773 -0.158841 0.164693 -0.229774 -0.168999 0.154252 -0.230245 -0.198106 0.114491 -0.230219 -0.177539 0.144342 -21.6886 16.4061 3.85448 -23.2554 29.7986 11.4599 -0.0 0.0 -0.0 -1.23705 11.1166 -0.786474 4.24698 -16.1686 58.608 1.67812 -39.7332 0.606403 -84.2513 -8.35821 5.20236 -6.23644 28.5431 -23.3467 -0.0 0.0 -0.0 5.02019 27.2361 -7.77778 -18.0085 30.6044 -70.2941 0.452348 12.6304 -0.0500613 29.2378 -0.0892823 3.69359 -1.3767 -27.62 -3.27825 0.0 0.0 0.0 -7.08279 23.0194 -1.59398 -15.3742 0.322045 2.3303 31.7527 1.5234 -4.0846 -3.83492 0.0 0.0 -0.0 0.0 -0.0 26.8696 29.7701 -23.1159 -48.3097 1.07816 -7.11971 25.3027 -27.9367 3.61148 27.2011 -0.0 -0.0 0.0 0.0 0.0 
2809.55154572 690.952 -1586.07273551 11.9650268064 66.5659776191 -7.8411478455 -0.328673 -0.0345832 0.166529 -0.328659 -0.0451098 0.163991 -0.328784 -0.0794338 0.150394 -0.328812 -0.054685 0.161051 -21.759 16.3501 3.60058 -23.343 29.8136 11.2263 -0.0 0.0 -0.0 -1.44337 10.8865 -1.1724 5.427 -16.2957 57.7704 1.82826 -42.162 0.70482 -85.077 -8.46155 5.18268 -6.24192 28.2579 -23.6271 -0.0 0.0 -0.0 5.06616 28.1801 -7.77689 -18.4769 30.5431 -71.0498 0.376258 10.5583 -0.0347663 29.1323 -0.092358 3.68046 -1.42085 -27.1913 -2.84689 0.0 0.0 0.0 -7.56064 22.8034 -1.06244 -15.7948 0.322011 2.39483 31.7012 1.24612 -4.08085 -3.41633 0.0 0.0 -0.0 0.0 -0.0 31.2278 27.4863 -24.5571 -42.3306 0.621657 -6.32142 27.8026 -26.8588 3.8936 25.4833 -0.0 -0.0 0.0 0.0 0.0 
2800.12415255 688.008 -1573.3537885 9.74700036762 66.20672498 -4.83615456769 -0.196417 0.0556205 -0.115093 -0.196412 0.0628314 -0.11132 -0.196535 0.0851524 -0.0953365 -0.196541 0.0690272 -0.107588 -21.7735 16.0779 3.25392 -23.3241 29.4527 10.769 -0.0 0.0 -0.0 -1.13992 10.7275 -0.67727 7.17614 -15.8386 56.7642 1.93192 -43.7372 0.77546 -85.1054 -8.46511 5.18198 -6.33116 28.1144 -24.2971 -0.0 0.0 -0.0 5.23621 28.8088 -8.0783 -19.4956 30.121 -70.5136 0.268692 7.5818 -0.0178036 29.3387 -0.0863203 3.70614 -1.41575 -26.0923 -2.38591 0.0 0.0 0.0 -7.14474 22.9784 -1.2273 -17.0584 0.31906 2.58868 33.5383 1.38328 -4.26659 -3.11556 0.0 0.0 -0.0 0.0 -0.0 32.1764 27.1916 -24.48 -40.8706 0.523081 -6.11972 27.1782 -26.7088 3.81405 24.9876 -0.0 -0.0 0.0 0.0 0.0 
